HIERARCHY
ROOT pelvis
{
	OFFSET 0.000000 0.705104 -0.000000
	CHANNELS 6 Xposition Yposition Zposition Xrotation Yrotation Zrotation
	JOINT spine
	{
		OFFSET 0.000000 0.000000 0.000000
		CHANNELS 6 Xposition Yposition Zposition Xrotation Yrotation Zrotation
		JOINT spine.001
		{
			OFFSET 0.000000 0.254430 0.013334
			CHANNELS 3 Xrotation Yrotation Zrotation
			JOINT neck
			{
				OFFSET 0.000000 0.252880 -0.031050
				CHANNELS 6 Xposition Yposition Zposition Xrotation Yrotation Zrotation
				JOINT face
				{
					OFFSET 0.000000 0.188111 -0.003283
					CHANNELS 6 Xposition Yposition Zposition Xrotation Yrotation Zrotation
					End Site
					{
						OFFSET 0.000000 -0.007319 0.029861
					}
				}
			}
			JOINT shoulder.L
			{
				OFFSET 0.000000 0.252880 -0.031050
				CHANNELS 6 Xposition Yposition Zposition Yrotation Xrotation Zrotation
				JOINT upper_arm.L
				{
					OFFSET 0.162704 0.000000 0.000000
					CHANNELS 6 Xposition Yposition Zposition Xrotation Yrotation Zrotation
					JOINT forearm.L
					{
						OFFSET 0.253279 0.000909 -0.000110
						CHANNELS 6 Xposition Yposition Zposition Xrotation Yrotation Zrotation
						End Site
						{
							OFFSET 0.223549 -0.001252 0.003802
						}
					}
				}
			}
			JOINT shoulder.R
			{
				OFFSET 0.000000 0.252880 -0.031050
				CHANNELS 6 Xposition Yposition Zposition Yrotation Xrotation Zrotation
				JOINT upper_arm.R
				{
					OFFSET -0.162704 0.000000 0.000000
					CHANNELS 6 Xposition Yposition Zposition Xrotation Yrotation Zrotation
					JOINT forearm.R
					{
						OFFSET -0.249555 0.000909 -0.000110
						CHANNELS 6 Xposition Yposition Zposition Xrotation Yrotation Zrotation
						End Site
						{
							OFFSET -0.226251 -0.001252 0.003849
						}
					}
				}
			}
		}
	}
	JOINT pelvis.L
	{
		OFFSET 0.000000 0.000000 0.000000
		CHANNELS 6 Xposition Yposition Zposition Yrotation Xrotation Zrotation
		End Site
		{
			OFFSET 0.103804 0.000000 0.000000
		}
	}
	JOINT pelvis.R
	{
		OFFSET 0.000000 0.000000 0.000000
		CHANNELS 6 Xposition Yposition Zposition Yrotation Xrotation Zrotation
		End Site
		{
			OFFSET -0.103803 0.000000 0.000000
		}
	}
	JOINT thigh.L
	{
		OFFSET 0.103804 0.000000 0.000000
		CHANNELS 6 Xposition Yposition Zposition Xrotation Yrotation Zrotation
		JOINT shin.L
		{
			OFFSET 0.017434 -0.332663 0.000000
			CHANNELS 6 Xposition Yposition Zposition Xrotation Yrotation Zrotation
			JOINT foot.L
			{
				OFFSET 0.015751 -0.300552 0.000000
				CHANNELS 6 Xposition Yposition Zposition Xrotation Yrotation Zrotation
				End Site
				{
					OFFSET 0.014620 -0.062597 0.149069
				}
			}
		}
	}
	JOINT thigh.R
	{
		OFFSET -0.103803 0.000000 0.000000
		CHANNELS 6 Xposition Yposition Zposition Xrotation Yrotation Zrotation
		JOINT shin.R
		{
			OFFSET -0.017652 -0.336816 0.000000
			CHANNELS 6 Xposition Yposition Zposition Xrotation Yrotation Zrotation
			JOINT foot.R
			{
				OFFSET -0.016147 -0.308100 0.000000
				CHANNELS 6 Xposition Yposition Zposition Xrotation Yrotation Zrotation
				End Site
				{
					OFFSET -0.015418 -0.066013 0.157206
				}
			}
		}
	}
}
MOTION
Frames: 8
Frame Time: 0.041667
0.035717 0.001369 -0.024828 0.000000 2.310748 0.000000 -0.000000 -0.000000 0.000000 -8.459254 0.347113 -2.735836 10.011659 3.306243 -0.406414 0.000000 0.252880 -0.031050 12.135784 -2.002304 3.162871 0.000000 0.188111 -0.003283 5.644571 0.000000 0.000000 0.000000 0.252880 -0.031050 0.124137 -0.001094 1.011166 0.162704 0.000000 -0.000000 -6.479551 -7.652260 -80.538107 0.253279 0.000909 -0.000110 -2.088869 -19.319911 -12.821115 0.000000 0.252880 -0.031050 0.118016 -0.000987 0.961421 -0.162704 0.000000 0.000000 -5.423545 6.607086 78.736741 -0.249555 0.000909 -0.000110 -2.732489 22.037073 14.544394 0.000000 -0.000000 0.000000 -0.000028 -0.000000 -2.445908 0.000000 0.000000 0.000000 -0.000000 -0.000000 -2.445876 0.103709 -0.004430 0.000000 0.369045 -0.000343 -6.103816 0.017434 -0.332663 0.000000 3.502600 0.078590 -3.429915 0.015751 -0.300552 0.000000 -6.725301 14.342654 7.644957 -0.103709 0.004430 -0.000000 0.063494 -0.003628 -0.542456 -0.017652 -0.336816 0.000000 6.720093 -0.173846 3.039587 -0.016147 -0.308100 0.000000 -8.641937 -5.349102 -3.597966 
0.035643 -0.001646 -0.024254 0.000000 2.489180 0.000000 -0.000000 -0.000000 -0.000000 -8.523926 0.355713 -2.791001 10.009596 2.988819 -0.367296 0.000000 0.252880 -0.031050 12.087125 -2.064417 3.270475 0.000000 0.188111 -0.003284 5.454279 0.000000 0.000000 -0.000000 0.252880 -0.031050 0.127596 -0.001155 1.039281 0.162704 0.000000 0.000000 -6.685635 -7.879381 -80.664848 0.253279 0.000909 -0.000110 -1.946366 -18.659635 -12.406933 -0.000000 0.252880 -0.031050 0.121428 -0.001047 0.989451 -0.162704 -0.000000 0.000000 -5.443770 6.653252 78.556471 -0.249555 0.000909 -0.000110 -2.757574 22.100271 14.633848 -0.000000 -0.000000 -0.000000 -0.000075 -0.000001 -2.481043 -0.000000 0.000000 -0.000000 -0.000001 -0.000000 -2.481044 0.103706 -0.004494 -0.000000 0.326584 -0.000546 -6.188458 0.017434 -0.332663 0.000000 3.758189 0.090272 -3.248969 0.015751 -0.300552 0.000000 -5.971636 14.348173 7.456091 -0.103706 0.004494 -0.000000 0.079874 -0.004527 -0.491191 -0.017652 -0.336816 0.000000 7.113728 -0.176602 3.159359 -0.016147 -0.308100 0.000000 -9.879114 -5.253752 -3.751344 
0.035581 -0.003755 -0.023825 0.000000 2.632595 0.000000 -0.000000 -0.000000 -0.000000 -8.576113 0.363213 -2.839467 10.008144 2.739057 -0.336542 0.000000 0.252880 -0.031050 12.063262 -2.139183 3.363299 -0.000000 0.188111 -0.003283 5.267102 0.000002 -0.000000 -0.000000 0.252880 -0.031050 0.129995 -0.001198 1.059633 0.162704 -0.000000 0.000000 -6.829025 -8.038146 -80.742214 0.253279 0.000909 -0.000110 -1.844654 -18.174017 -12.100765 -0.000000 0.252880 -0.031050 0.123963 -0.001088 1.009888 -0.162704 0.000000 0.000000 -5.454532 6.684269 78.408652 -0.249555 0.000909 -0.000110 -2.781175 22.165089 14.713453 -0.000000 0.000000 -0.000000 -0.000024 -0.000000 -2.508178 -0.000000 0.000000 -0.000000 -0.000000 0.000000 -2.508146 0.103704 -0.004543 -0.000000 0.284848 -0.000601 -6.239383 0.017434 -0.332663 0.000000 3.979406 0.099161 -3.146219 0.015751 -0.300552 0.000000 -5.435942 14.378166 7.334775 -0.103704 0.004543 -0.000000 0.098185 -0.005532 -0.450328 -0.017652 -0.336816 0.000000 7.378713 -0.179778 3.212439 -0.016147 -0.308100 0.000000 -10.717879 -5.192720 -3.857054 
0.035577 -0.004791 -0.023609 0.000000 2.747932 0.000000 -0.000000 -0.000000 0.000000 -8.606353 0.368141 -2.871975 10.007066 2.564426 -0.315081 -0.000000 0.252880 -0.031050 12.059088 -2.211208 3.427558 -0.000000 0.188111 -0.003283 5.083620 -0.000001 -0.000000 -0.000000 0.252880 -0.031050 0.131464 -0.001225 1.070712 0.162704 -0.000000 0.000000 -6.904215 -8.122224 -80.775757 0.253279 0.000909 -0.000110 -1.787136 -17.905503 -11.914005 -0.000000 0.252880 -0.031050 0.125338 -0.001114 1.020967 -0.162704 0.000000 0.000000 -5.450707 6.691716 78.307730 -0.249555 0.000909 -0.000110 -2.801257 22.239861 14.765619 -0.000000 0.000000 -0.000000 0.000015 0.000001 -2.501396 -0.000000 0.000000 -0.000000 -0.000000 0.000000 -2.501363 0.103705 -0.004530 -0.000000 0.235814 -0.000539 -6.258554 0.017434 -0.332663 0.000000 4.159658 0.104642 -3.119122 0.015751 -0.300552 0.000000 -5.165778 14.397306 7.275546 -0.103705 0.004530 -0.000000 0.123009 -0.006877 -0.402161 -0.017652 -0.336816 0.000000 7.501642 -0.185682 3.168201 -0.016147 -0.308100 0.000000 -11.150733 -5.190370 -3.927164 
0.035663 -0.005184 -0.023579 0.000000 2.866713 0.000000 -0.000000 -0.000000 0.000000 -8.612667 0.369952 -2.884856 10.006295 2.424649 -0.297872 0.000000 0.252880 -0.031050 12.052904 -2.241018 3.460200 0.000000 0.188111 -0.003283 4.922940 0.000001 0.000000 -0.000000 0.252880 -0.031050 0.131864 -0.001235 1.074436 0.162704 0.000000 0.000000 -6.950259 -8.173066 -80.801391 0.253279 0.000909 -0.000110 -1.755626 -17.774546 -11.796093 -0.000000 0.252880 -0.031050 0.125766 -0.001124 1.024691 -0.162704 0.000000 0.000000 -5.437156 6.682310 78.245472 -0.249555 0.000909 -0.000110 -2.816442 22.322127 14.784916 -0.000000 0.000000 0.000000 0.000026 0.000000 -2.452294 -0.000000 0.000000 0.000000 -0.000000 0.000000 -2.452296 0.103708 -0.004441 0.000000 0.171362 -0.000420 -6.274944 0.017434 -0.332663 0.000000 4.314955 0.109138 -3.103477 0.015751 -0.300552 0.000000 -5.048390 14.334257 7.216584 -0.103708 0.004442 -0.000000 0.154577 -0.008544 -0.325570 -0.017652 -0.336816 0.000000 7.556931 -0.194672 3.053035 -0.016147 -0.308100 0.000000 -11.396112 -5.246341 -3.997769 
0.035790 -0.005339 -0.023645 0.000000 3.000790 0.000000 -0.000000 -0.000000 0.000000 -8.603467 0.370054 -2.887474 10.005581 2.288583 -0.281154 0.000000 0.252880 -0.031050 12.034505 -2.216231 3.475794 0.000000 0.188111 -0.003284 4.808249 0.000001 -0.000000 0.000000 0.252880 -0.031050 0.132013 -0.001244 1.075585 0.162704 0.000000 0.000000 -6.994715 -8.220666 -80.834906 0.253279 0.000909 -0.000110 -1.733792 -17.694821 -11.704429 -0.000000 0.252880 -0.031050 0.125929 -0.001130 1.025799 -0.162704 0.000000 0.000000 -5.422504 6.669524 78.201199 -0.249555 0.000909 -0.000110 -2.827365 22.391906 14.790597 -0.000000 -0.000000 0.000000 -0.000066 -0.000002 -2.396448 -0.000000 0.000000 0.000000 -0.000000 -0.000000 -2.396416 0.103713 -0.004340 0.000000 0.098067 -0.000268 -6.303323 0.017434 -0.332663 0.000000 4.453387 0.114324 -3.060370 0.015751 -0.300552 0.000000 -4.977233 14.174686 7.124432 -0.103713 0.004340 0.000000 0.183472 -0.009993 -0.234247 -0.017652 -0.336816 0.000000 7.612905 -0.204100 2.933092 -0.016147 -0.308100 0.000000 -11.594196 -5.333821 -4.077861 
0.035867 -0.005376 -0.023723 0.000000 3.132798 0.000000 -0.000000 -0.000000 0.000000 -8.591650 0.370657 -2.894557 10.005053 2.160176 -0.265342 -0.000000 0.252880 -0.031050 12.010530 -2.168433 3.494051 -0.000000 0.188111 -0.003283 4.742833 0.000000 0.000000 -0.000000 0.252880 -0.031050 0.132718 -0.001248 1.081146 0.162704 -0.000000 0.000000 -7.036165 -8.264850 -80.867042 0.253279 0.000909 -0.000110 -1.716261 -17.632490 -11.628769 -0.000000 0.252880 -0.031050 0.126590 -0.001136 1.031360 -0.162704 -0.000000 0.000000 -5.410579 6.659866 78.158469 -0.249555 0.000909 -0.000110 -2.835519 22.434805 14.801831 -0.000000 0.000000 0.000000 0.000056 0.000001 -2.373366 -0.000000 0.000000 0.000000 -0.000000 -0.000000 -2.373367 0.103714 -0.004299 0.000000 0.033656 -0.000102 -6.328301 0.017434 -0.332663 0.000000 4.563710 0.119137 -3.010726 0.015751 -0.300552 0.000000 -4.918079 13.988030 7.022929 -0.103714 0.004299 -0.000000 0.198662 -0.010694 -0.163149 -0.017652 -0.336816 0.000000 7.686012 -0.210890 2.861325 -0.016147 -0.308100 0.000000 -11.748697 -5.429297 -4.155367 
0.035857 -0.005307 -0.023780 0.000000 3.243936 0.000000 -0.000000 0.000000 -0.000000 -8.583395 0.372564 -2.911096 10.004605 2.054207 -0.252312 -0.000000 0.252880 -0.031050 11.988054 -2.135750 3.521288 0.000000 0.188111 -0.003284 4.710490 0.000001 -0.000000 -0.000000 0.252880 -0.031050 0.134485 -0.001280 1.095246 0.162704 0.000000 0.000000 -7.069051 -8.300171 -80.891194 0.253279 0.000909 -0.000110 -1.702469 -17.583543 -11.568720 -0.000000 0.252880 -0.031050 0.128358 -0.001163 1.045417 -0.162704 -0.000000 -0.000000 -5.400443 6.652547 78.114852 -0.249555 0.000909 -0.000110 -2.841428 22.459609 14.814755 -0.000000 0.000000 -0.000000 0.000016 0.000001 -2.381532 0.000000 0.000000 -0.000000 -0.000000 0.000000 -2.381566 0.103714 -0.004313 -0.000000 -0.012506 0.000032 -6.330612 0.017434 -0.332663 0.000000 4.637654 0.121896 -2.990333 0.015751 -0.300552 0.000000 -4.867313 13.845441 6.944161 -0.103714 0.004313 -0.000000 0.198891 -0.010643 -0.126196 -0.017652 -0.336816 0.000000 7.762647 -0.214477 2.839544 -0.016147 -0.308100 0.000000 -11.860629 -5.536069 -4.232097 
